<svg xmlns="http://www.w3.org/2000/svg" xmlns:xlink="http://www.w3.org/1999/xlink" viewBox="0 0 728 591.01"><defs><style>.cls-1{fill:url(#linear-gradient);}.cls-2{fill:url(#linear-gradient-2);}.cls-3{fill:url(#linear-gradient-3);}.cls-4{fill:url(#linear-gradient-4);}</style><linearGradient id="linear-gradient" x1="456.9" y1="521.81" x2="748.5" y2="521.81" gradientUnits="userSpaceOnUse"><stop offset="0" stop-color="#7931e1"/><stop offset="1" stop-color="#36268a"/></linearGradient><linearGradient id="linear-gradient-2" x1="20.5" y1="387.2" x2="728.86" y2="387.2" xlink:href="#linear-gradient"/><linearGradient id="linear-gradient-3" x1="451.13" y1="172.79" x2="594.06" y2="172.79" xlink:href="#linear-gradient"/><linearGradient id="linear-gradient-4" x1="460.43" y1="128.82" x2="672.99" y2="128.82" xlink:href="#linear-gradient"/></defs><title>feature3</title><g id="Object"><path class="cls-1" d="M616.24,427.62a76.75,76.75,0,0,0-74.78,59.49A65.81,65.81,0,1,0,522.72,616H697.3a51.61,51.61,0,0,0-.4-103.23c-1.47,0-2.92.08-4.37.2a81.25,81.25,0,0,0,.5-8.57A76.79,76.79,0,0,0,616.24,427.62Z" transform="translate(-20.5 -24.99)"/><path class="cls-2" d="M522.72,462.56c1.37,0,2.77,0,4.15.11A98.63,98.63,0,0,1,714.2,493a69.59,69.59,0,0,1,9.4,3.15A159.76,159.76,0,0,0,523.46,302.92c-19.07-82.78-93.15-144.53-181.7-144.53-103,0-186.49,83.5-186.49,186.49a185.66,185.66,0,0,0,1.19,20.85c-3.5-.29-7-.48-10.6-.48a125.37,125.37,0,0,0-1,250.73v0H465a87.52,87.52,0,0,1,57.68-153.45Z" transform="translate(-20.5 -24.99)"/><path class="cls-3" d="M460.79,104l-2.15-.31a7.52,7.52,0,0,0-7.51,7.5v27.4a7.4,7.4,0,0,0,4.87,6.91,163.09,163.09,0,0,1,95.88,91.95,7.3,7.3,0,0,0,6.77,4.55h27.93a7.54,7.54,0,0,0,6.09-3.14,7.45,7.45,0,0,0,1-6.76A204.39,204.39,0,0,0,460.79,104Z" transform="translate(-20.5 -24.99)"/><path class="cls-4" d="M469.56,25.15,467.93,25a7.49,7.49,0,0,0-7.5,7.47v27A7.35,7.35,0,0,0,466,66.57,229.8,229.8,0,0,1,631.39,227.26a7.36,7.36,0,0,0,7,5.39h27.07a7.51,7.51,0,0,0,7.26-9.3C648.13,125,568.36,47.17,469.56,25.15Z" transform="translate(-20.5 -24.99)"/></g></svg>