<svg xmlns="http://www.w3.org/2000/svg" xmlns:xlink="http://www.w3.org/1999/xlink" viewBox="0 0 805 594"><defs><style>.cls-1{fill:url(#linear-gradient);}.cls-2{fill:url(#linear-gradient-2);}.cls-3{fill:url(#linear-gradient-3);}.cls-4{fill:url(#linear-gradient-4);}.cls-5{fill:#fff;}</style><linearGradient id="linear-gradient" x1="73.71" y1="332.66" x2="287.3" y2="332.66" gradientUnits="userSpaceOnUse"><stop offset="0" stop-color="#7931e1"/><stop offset="1" stop-color="#36268a"/></linearGradient><linearGradient id="linear-gradient-2" x1="100.3" y1="447.35" x2="688.06" y2="447.35" xlink:href="#linear-gradient"/><linearGradient id="linear-gradient-3" x1="86.2" y1="293.2" x2="776.29" y2="293.2" gradientUnits="userSpaceOnUse"><stop offset="0.2" stop-color="#7931e1"/><stop offset="1" stop-color="#36268a"/></linearGradient><linearGradient id="linear-gradient-4" x1="605.61" y1="149.69" x2="751.31" y2="149.69" gradientUnits="userSpaceOnUse"><stop offset="1" stop-color="#7931e1"/><stop offset="1" stop-color="#36268a"/></linearGradient></defs><title>feature1</title><g id="Object"><path class="cls-1" d="M73.71,132.89V532.42a2.36,2.36,0,0,0,3.92,1.92L285.4,344.22a6,6,0,0,0,.18-8.56L77.72,131A2.38,2.38,0,0,0,73.71,132.89Z"/><path class="cls-2" d="M481.93,354.11l-48.48,47.73a56.21,56.21,0,0,1-39.63,16.38,53.82,53.82,0,0,1-38-15.49l-49.42-48.64L305,352.7,100.75,539.61a1.38,1.38,0,0,0,.84,2.39h585.2a1.37,1.37,0,0,0,.83-2.39L483.32,352.7Z"/><path class="cls-3" d="M498.92,344.22l207.36,189.7a2.37,2.37,0,0,0,3.93-1.9V242.15A97.79,97.79,0,1,0,588.26,111.89H87.49a1.38,1.38,0,0,0-.87,2.37L303.46,327.72l13,12.82,49.41,48.62a33.22,33.22,0,0,0,5.78,4.62l2.23,1.17a38.68,38.68,0,0,0,4.22,2.12l2.82.81A38.9,38.9,0,0,0,385,399l3.06.28a39.48,39.48,0,0,0,4.07.31,35.67,35.67,0,0,0,4.13-.4l3.17-.36a32.48,32.48,0,0,0,4.22-1.24l2.89-.89a40.06,40.06,0,0,0,4.46-2.32l2.29-1.22a39.14,39.14,0,0,0,6.1-4.9l48.47-47.73,13-12.82L601.12,209.39a99.13,99.13,0,0,0,12.43,13.31l-114.76,113A6,6,0,0,0,498.92,344.22Zm106.7-194.53a72.85,72.85,0,1,1,72.85,72.84A72.91,72.91,0,0,1,605.61,149.69Z"/><path class="cls-4" d="M605.61,149.69a72.85,72.85,0,1,0,72.85-72.84A72.91,72.91,0,0,0,605.61,149.69Zm72-14.2c8.06,0,16.21,1.83,22.2,6.1,6.36,4.29,10.25,11.31,10.25,21.18,0,15.71-13.48,29.6-36.24,29.6-10.25,0-18.81-2.32-23.5-4.81l3.52-14.8a48.22,48.22,0,0,0,19.07,4.15c8.19,0,16.9-3.87,16.9-12.84,0-8.71-6.91-14-23.78-14a70.32,70.32,0,0,0-11.41.8l5.59-44.28H706.7v16.22H674l-1.84,13A35.18,35.18,0,0,1,677.62,135.49Z"/><path class="cls-5" d="M672.92,176.91a48.22,48.22,0,0,1-19.07-4.15l-3.52,14.8c4.69,2.49,13.25,4.81,23.5,4.81,22.76,0,36.24-13.89,36.24-29.6,0-9.87-3.89-16.88-10.25-21.18-6-4.27-14.14-6.1-22.2-6.1a35.18,35.18,0,0,0-5.47.27l1.84-13H706.7V106.56H660.21l-5.59,44.28A70.32,70.32,0,0,1,666,150c16.88,0,23.78,5.33,23.78,14C689.82,173,681.11,176.91,672.92,176.91Z"/></g></svg>