<svg id="Layer_1" data-name="Layer 1" xmlns="http://www.w3.org/2000/svg" xmlns:xlink="http://www.w3.org/1999/xlink" viewBox="0 0 336.58 298.49"><defs><style>.cls-1{fill:url(#linear-gradient);}.cls-2{fill:url(#linear-gradient-2);}.cls-3{fill:url(#linear-gradient-3);}</style><linearGradient id="linear-gradient" x1="21.6" y1="103.52" x2="207.62" y2="103.52" gradientUnits="userSpaceOnUse"><stop offset="0" stop-color="#6c51a2"/><stop offset="1" stop-color="#352f88"/></linearGradient><linearGradient id="linear-gradient-2" x1="159.82" y1="220.02" x2="291.71" y2="220.02" xlink:href="#linear-gradient"/><linearGradient id="linear-gradient-3" x1="210.96" y1="103.52" x2="314.98" y2="103.52" xlink:href="#linear-gradient"/></defs><title>features2</title><path class="cls-1" d="M153.72,166.49a74.56,74.56,0,0,0,15.95-13.4l16.77,9.69,15.27-26.45L185,126.67a73.47,73.47,0,0,0,3.61-20.53l19-3.35-5.3-30.07-19,3.36a74,74,0,0,0-10.44-18l12.45-14.83-23.4-19.63L149.46,38.39a73.48,73.48,0,0,0-19.58-7.14V11.93H99.34V31.25a73.5,73.5,0,0,0-19.58,7.14L67.33,23.58,43.94,43.21,56.38,58a74.22,74.22,0,0,0-10.44,18l-19-3.36-5.3,30.07,19,3.35a73.74,73.74,0,0,0,3.61,20.53l-16.74,9.66,15.27,26.45,16.77-9.68a74.55,74.55,0,0,0,15.94,13.4l-6.62,18.18,28.7,10.44L104.19,177A74.22,74.22,0,0,0,125,177l6.61,18.16,28.7-10.44Zm-39.11-23.82a39,39,0,1,1,39-39,39,39,0,0,1-39,39Zm0,0"/><path class="cls-2" d="M285,189.42l-13.16,4.26a52.87,52.87,0,0,0-9.19-11.75L270,170.19l-18.52-11.6-7.35,11.73a52.57,52.57,0,0,0-14.59-3.13l-1.91-13.7-21.65,3,1.91,13.7a52.52,52.52,0,0,0-13.18,7l-10.28-9.27-14.65,16.23,10.29,9.28a53,53,0,0,0-5.62,13.82l-13.83-.5-.79,21.84,13.83.5a52.7,52.7,0,0,0,4.59,14.2l-10.91,8.51L180.77,269l10.93-8.52a53.49,53.49,0,0,0,12.63,7.92L201.43,282l21.38,4.57L225.7,273A52.95,52.95,0,0,0,240.48,271L247,283.19l19.31-10.24-6.49-12.24a53.44,53.44,0,0,0,10-11.07l12.85,5.21,8.21-20.26L278,229.39a52.73,52.73,0,0,0,.53-14.91l13.17-4.26Zm-55.27,58.27a27.92,27.92,0,1,1,23.8-31.5,27.95,27.95,0,0,1-23.8,31.5Zm0,0"/><path class="cls-3" d="M314.47,113.67,315,96.42l-10.92-.32a41.76,41.76,0,0,0-3.7-11.19l8.57-6.77L298.24,64.6l-8.57,6.77a41.85,41.85,0,0,0-10-6.17l2.22-10.71L265,51l-2.22,10.7a41.31,41.31,0,0,0-11.66,1.69l-5.18-9.62-15.19,8.18,5.18,9.62a41.55,41.55,0,0,0-7.83,8.8l-10.15-4-6.38,16,10.16,4a41.79,41.79,0,0,0-.36,11.76L211,111.6,216.38,128l10.37-3.43a41.65,41.65,0,0,0,7.3,9.24l-5.74,9.3L243,152.16l5.75-9.31a42.15,42.15,0,0,0,11.52,2.39l1.58,10.82,17.08-2.49-1.57-10.81a41.37,41.37,0,0,0,5.38-2.43,42,42,0,0,0,5-3.16l8.16,7.26,11.48-12.89-8.16-7.27a42.23,42.23,0,0,0,4.34-10.94Zm-41.12,9.24a22,22,0,1,1,9-29.85,22.06,22.06,0,0,1-9,29.85Zm0,0"/></svg>