<svg xmlns="http://www.w3.org/2000/svg" xmlns:xlink="http://www.w3.org/1999/xlink" viewBox="0 0 601.94 689.32"><defs><style>.cls-1{fill:url(#linear-gradient);}.cls-2{fill:url(#linear-gradient-2);}.cls-3{fill:url(#linear-gradient-3);}.cls-4{fill:url(#linear-gradient-4);}.cls-5{fill:url(#linear-gradient-5);}.cls-6{fill:url(#linear-gradient-6);}.cls-7{fill:url(#linear-gradient-7);}.cls-8{fill:url(#linear-gradient-8);}.cls-9{fill:url(#linear-gradient-9);}.cls-10{fill:#fff;}</style><linearGradient id="linear-gradient" x1="158.6" y1="413.61" x2="554.39" y2="413.61" gradientUnits="userSpaceOnUse"><stop offset="0" stop-color="#714194"/><stop offset="0.23" stop-color="#6c4194"/><stop offset="0.5" stop-color="#5e4195"/><stop offset="0.79" stop-color="#464295"/><stop offset="1" stop-color="#304296"/></linearGradient><linearGradient id="linear-gradient-2" x1="283.6" y1="683.1" x2="426.84" y2="683.1" xlink:href="#linear-gradient"/><linearGradient id="linear-gradient-3" x1="291.24" y1="667.13" x2="417.49" y2="667.13" xlink:href="#linear-gradient"/><linearGradient id="linear-gradient-4" x1="291.24" y1="684.51" x2="417.49" y2="684.51" xlink:href="#linear-gradient"/><linearGradient id="linear-gradient-5" x1="342.34" y1="82.5" x2="372.63" y2="82.5" gradientUnits="userSpaceOnUse"><stop offset="0" stop-color="#714194"/><stop offset="1" stop-color="#304296"/></linearGradient><linearGradient id="linear-gradient-6" x1="526.12" y1="156.79" x2="591.32" y2="156.79" xlink:href="#linear-gradient-5"/><linearGradient id="linear-gradient-7" x1="574.83" y1="324.91" x2="655.97" y2="324.91" xlink:href="#linear-gradient-5"/><linearGradient id="linear-gradient-8" x1="141.16" y1="141.22" x2="208.3" y2="141.22" xlink:href="#linear-gradient-5"/><linearGradient id="linear-gradient-9" x1="54.03" y1="292.14" x2="135.17" y2="292.14" xlink:href="#linear-gradient-5"/></defs><title>features2</title><g id="Objects"><path class="cls-1" d="M554.39,363.27c0-109.3-88.6-197.9-197.9-197.9S158.22,254.67,158.6,364a197.24,197.24,0,0,0,57.77,139,224.6,224.6,0,0,1,58.14,99.83l16,59H420.2L435.31,606a225.12,225.12,0,0,1,59.92-101.58A197.28,197.28,0,0,0,554.39,363.27Z" transform="translate(-54.03 -41.65)"/><path class="cls-2" d="M386.46,731H323.21c-17.92,0-33.25-13.23-34.27-30l-5.34-64.81,143.25-.92-6.11,65.73C419.71,717.74,404.38,731,386.46,731Z" transform="translate(-54.03 -41.65)"/><path class="cls-3" d="M414,663.48c-40,1.71-80.17-.34-120.18,1.43-3.55.16-3.29,5.34.2,5.46,40,1.33,80.19-1.15,120.24.12C418.71,670.64,418.51,663.29,414,663.48Z" transform="translate(-54.03 -41.65)"/><path class="cls-4" d="M414,680.86c-40,1.71-80.17-.34-120.18,1.43-3.55.16-3.29,5.34.2,5.46,40,1.33,80.19-1.15,120.24.12C418.71,688,418.51,680.67,414,680.86Z" transform="translate(-54.03 -41.65)"/><path class="cls-5" d="M372.63,64.74c0,12.75-6.78,58.6-15.15,58.6s-15.15-45.85-15.15-58.6,6.78-23.09,15.15-23.09S372.63,52,372.63,64.74Z" transform="translate(-54.03 -41.65)"/><path class="cls-6" d="M561.34,135.16c-9.67,8.31-40,43.33-34.58,49.68s44.64-18.39,54.32-26.7,13.09-20.19,7.64-26.54S571,126.85,561.34,135.16Z" transform="translate(-54.03 -41.65)"/><path class="cls-7" d="M634.89,339.75c-12.65,1.61-59,.66-60-7.64s43.57-20.8,56.22-22.41,23.76,3.82,24.82,12.12S647.54,338.15,634.89,339.75Z" transform="translate(-54.03 -41.65)"/><path class="cls-8" d="M170.94,119.93c10,7.86,42,41.47,36.8,48.05s-45.43-16.34-55.47-24.21-14-19.58-8.84-26.16S160.9,112.07,170.94,119.93Z" transform="translate(-54.03 -41.65)"/><path class="cls-9" d="M75.11,307c12.65,1.61,59,.66,60-7.64s-43.57-20.8-56.22-22.41S55.16,280.74,54.11,289,62.46,305.37,75.11,307Z" transform="translate(-54.03 -41.65)"/><path class="cls-10" d="M441.91,464A50.92,50.92,0,0,1,427,446.44c7.18-8.86,10.34-20.78,11.65-31.85a199.51,199.51,0,0,0,1.14-20.37c.11-6.57-.76-12.14-6.32-16.23-5-3.64-11.58-.36-15.38,3.18-4.39,4.08-6.52,10.76-8.21,16.33-3.42,11.24-3.36,23.28-1.21,34.74A69,69,0,0,0,412,443.94a30.46,30.46,0,0,1-9.51,5.06c-10.81,3.46-19-2.77-24-12-.82-1.51-1.6-3.12-2.34-4.79.85-2.28,1.66-4.56,2.42-6.81a142.09,142.09,0,0,0,6.63-33.92c.76-9.53,1-20.92-8.13-26.56-2.95-1.82-6.26-.44-8.11,2.13-13.4,18.59-12.65,43.24-5.37,64.32a140,140,0,0,1-8.15,16.29c-3.36,5.79-9.77,14.71-17.55,13.58-7.24-1.05-13-10.15-16.63-15.77a64.26,64.26,0,0,1-6.34-13.1q1.38-3.63,2.56-7.35A134.59,134.59,0,0,0,323.06,395c.67-8.49.95-20.41-8.34-24.48-2.7-1.18-6.69-1.06-8.12,2.13A85,85,0,0,0,302,429.9c.17.65.38,1.3.57,1.95A125.79,125.79,0,0,1,278,470.74c-4.67,5.07,2.72,12.54,7.58,7.58a132.1,132.1,0,0,0,23-31.88,83.61,83.61,0,0,0,6,9.65c6.06,8.4,13.66,16.26,24.57,16.85,10.19.55,18.47-8,24-15.46a80.73,80.73,0,0,0,7-11.52c5,8,12.19,14.26,22,15.63,9,1.26,17.76-1.54,25.15-6.49a75.09,75.09,0,0,0,16.45,19.47C441.23,480.8,449.74,469.76,441.91,464ZM373.74,381.5c.42,4.74-.68,10.59-.94,13.47a113.17,113.17,0,0,1-2.61,15.59C369,400.44,369.78,390.08,373.74,381.5ZM420,411.32a56.38,56.38,0,0,1,3.31-14.41,29.68,29.68,0,0,1,2.88-6,12.78,12.78,0,0,1,.93-1.15,9.31,9.31,0,0,1,.23,1.43c.63,12-.36,25-4.1,36.41a36,36,0,0,1-1.65,4.13A67.67,67.67,0,0,1,420,411.32Z" transform="translate(-54.03 -41.65)"/><path class="cls-10" d="M453.16,434.92c-21,64.22-43.19,128.13-67,191.39-2.85,7.57,8.82,12.21,11.65,4.64,23.71-63.35,45.74-127.28,65.49-192C465.35,432.3,455.36,428.2,453.16,434.92Z" transform="translate(-54.03 -41.65)"/><path class="cls-10" d="M261.77,430.86c16.79,65.47,32.48,131.25,46.43,197.38,1.67,7.92,14,5.56,12.32-2.35-14.07-66.17-29.88-131.91-48-197.08C270.64,422.1,260,424,261.77,430.86Z" transform="translate(-54.03 -41.65)"/></g></svg>