<svg id="Layer_1" data-name="Layer 1" xmlns="http://www.w3.org/2000/svg" xmlns:xlink="http://www.w3.org/1999/xlink" viewBox="0 0 294 102"><defs><style>.cls-1{fill:url(#linear-gradient);}.cls-2{fill:#fff;}.cls-3{fill:url(#linear-gradient-2);}.cls-4{fill:url(#linear-gradient-3);}.cls-5{fill:url(#linear-gradient-4);}.cls-6{fill:url(#linear-gradient-5);}.cls-7{fill:url(#linear-gradient-6);}.cls-8{fill:url(#linear-gradient-7);}.cls-9{fill:url(#linear-gradient-8);}.cls-10{fill:url(#linear-gradient-9);}</style><linearGradient id="linear-gradient" x1="6.56" y1="51" x2="63.44" y2="51" gradientUnits="userSpaceOnUse"><stop offset="0" stop-color="#7931e1"/><stop offset="1" stop-color="#36268a"/></linearGradient><linearGradient id="linear-gradient-2" x1="64.85" y1="90.29" x2="82.44" y2="90.29" gradientTransform="translate(85.42 -25.63) rotate(45)" xlink:href="#linear-gradient"/><linearGradient id="linear-gradient-3" x1="64.85" y1="11.71" x2="82.44" y2="11.71" gradientTransform="translate(29.85 -48.65) rotate(45)" xlink:href="#linear-gradient"/><linearGradient id="linear-gradient-4" x1="83.85" y1="51" x2="140.73" y2="51" xlink:href="#linear-gradient"/><linearGradient id="linear-gradient-5" x1="44.56" y1="51" x2="102.73" y2="51" gradientTransform="translate(57.63 -37.14) rotate(45)" xlink:href="#linear-gradient"/><linearGradient id="linear-gradient-6" x1="155.65" y1="51.28" x2="179.32" y2="51.28" xlink:href="#linear-gradient"/><linearGradient id="linear-gradient-7" x1="182.01" y1="51.28" x2="213.67" y2="51.28" xlink:href="#linear-gradient"/><linearGradient id="linear-gradient-8" x1="219.46" y1="51.28" x2="249.75" y2="51.28" xlink:href="#linear-gradient"/><linearGradient id="linear-gradient-9" x1="255.99" y1="51.28" x2="287.65" y2="51.28" xlink:href="#linear-gradient"/></defs><title>Logo-01-01</title><polygon class="cls-1" points="6.56 51 54.65 2.92 63.44 11.71 24.15 51 63.44 90.29 54.65 99.08 6.56 51"/><path class="cls-2" d="M54.65,3.62l8.09,8.09L24.15,50.29l-.71.71.71.71L62.73,90.29l-8.09,8.09L7.27,51,54.65,3.62m0-1.41L5.85,51,54.65,99.79l9.5-9.5L24.85,51,64.15,11.71l-9.5-9.5Z"/><rect class="cls-3" x="67.43" y="84.07" width="12.44" height="12.44" transform="translate(-42.27 78.52) rotate(-45)"/><path class="cls-2" d="M73.65,82.2l8.09,8.09-8.09,8.09-8.09-8.09,8.09-8.09m0-1.41-9.5,9.5,9.5,9.5,9.5-9.5-9.5-9.5Z"/><rect class="cls-4" x="67.43" y="5.49" width="12.44" height="12.44" transform="translate(13.29 55.5) rotate(-45)"/><path class="cls-2" d="M73.65,3.62l8.09,8.09L73.65,19.8l-8.09-8.09,8.09-8.09m0-1.41-9.5,9.5,9.5,9.5,9.5-9.5-9.5-9.5Z"/><polygon class="cls-5" points="83.85 90.29 123.14 51 83.85 11.71 92.64 2.92 140.73 51 92.64 99.08 83.85 90.29"/><path class="cls-2" d="M92.65,3.62,140,51,92.65,98.38l-8.09-8.09,38.58-38.58.71-.71-.71-.71L84.56,11.71l8.09-8.09m0-1.41-9.5,9.5L122.44,51,83.15,90.29l9.5,9.5L141.44,51,92.65,2.21Z"/><rect class="cls-6" x="53.08" y="30.43" width="41.13" height="41.13" transform="translate(-14.49 67.01) rotate(-45)"/><path class="cls-2" d="M73.65,22.62,102,51,73.65,79.38,45.27,51,73.65,22.62m0-1.41L43.85,51,73.65,80.79,103.44,51,73.65,21.21Z"/><polygon class="cls-7" points="155.65 70.29 155.65 32.26 162.55 32.26 162.55 64.83 179.32 64.83 179.32 70.29 155.65 70.29"/><path class="cls-2" d="M162,32.76V65.33h16.78v4.46H156.15v-37H162m1-1h-7.9v39h24.68V64.33H163V31.76Z"/><path class="cls-8" d="M197.89,70.83a15.32,15.32,0,0,1-8.24-2.26A15,15,0,0,1,184,62.12a22.83,22.83,0,0,1-2-9.75V50.45a23.41,23.41,0,0,1,2-9.94A15,15,0,0,1,189.58,34a16.15,16.15,0,0,1,16.51,0,15,15,0,0,1,5.58,6.52,23.35,23.35,0,0,1,2,9.91v1.74a23.54,23.54,0,0,1-2,9.9,14.84,14.84,0,0,1-5.54,6.49A15.21,15.21,0,0,1,197.89,70.83Zm-.05-33.45a7.51,7.51,0,0,0-6.55,3.37c-1.49,2.17-2.26,5.38-2.27,9.52v1.9c0,4.07.75,7.28,2.24,9.55a8,8,0,0,0,13.16.13c1.47-2.19,2.23-5.4,2.24-9.54V50.39c0-4.17-.76-7.41-2.25-9.61A7.5,7.5,0,0,0,197.84,37.37Z"/><path class="cls-2" d="M197.84,32.23a14.75,14.75,0,0,1,8,2.19,14.48,14.48,0,0,1,5.39,6.3,22.85,22.85,0,0,1,1.95,9.7v1.74a23.05,23.05,0,0,1-1.91,9.69,14.35,14.35,0,0,1-5.35,6.28,15.67,15.67,0,0,1-16,0,14.49,14.49,0,0,1-5.42-6.24,22.33,22.33,0,0,1-2-9.53V50.45a22.91,22.91,0,0,1,1.95-9.72,14.47,14.47,0,0,1,5.39-6.3,14.74,14.74,0,0,1,8-2.19m.05,33.51a7.9,7.9,0,0,0,6.94-3.62c1.53-2.27,2.31-5.58,2.33-9.82v-1.9c0-4.28-.78-7.6-2.33-9.89a8.55,8.55,0,0,0-14,0c-1.55,2.26-2.34,5.55-2.36,9.8v1.9c0,4.16.78,7.47,2.32,9.82a8,8,0,0,0,7.05,3.75m-.05-34.51a15.66,15.66,0,0,0-8.52,2.35,15.38,15.38,0,0,0-5.77,6.73,23.79,23.79,0,0,0-2,10.15v1.93a23.22,23.22,0,0,0,2.08,10A15.4,15.4,0,0,0,189.38,69a16.67,16.67,0,0,0,17.05,0,15.26,15.26,0,0,0,5.73-6.7,23.93,23.93,0,0,0,2-10.11V50.42a23.73,23.73,0,0,0-2-10.12,15.39,15.39,0,0,0-5.77-6.73,15.66,15.66,0,0,0-8.52-2.35Zm.05,33.51a7,7,0,0,1-6.22-3.3q-2.16-3.3-2.16-9.27v-1.9q0-6.08,2.19-9.23a7.55,7.55,0,0,1,12.3,0q2.16,3.19,2.16,9.33v1.9q0,6.09-2.16,9.26a6.92,6.92,0,0,1-6.11,3.18Z"/><path class="cls-9" d="M235.58,70.83a16.46,16.46,0,0,1-8.48-2.14,14.22,14.22,0,0,1-5.6-6.21,22.53,22.53,0,0,1-2-9.68V50.15a24,24,0,0,1,1.89-9.91,14.08,14.08,0,0,1,5.39-6.32A15.45,15.45,0,0,1,235,31.73c4.4,0,7.88,1.07,10.34,3.19a13.56,13.56,0,0,1,4.32,8.76H243a8.07,8.07,0,0,0-2.43-4.78,7.87,7.87,0,0,0-5.29-1.68,7.47,7.47,0,0,0-6.55,3.3c-1.46,2.13-2.2,5.31-2.22,9.45v2.49c0,4.18.8,7.4,2.39,9.57A8.3,8.3,0,0,0,236,65.37c3.09,0,5.35-.7,6.7-2.08l.14-.15V55.71h-7.19V50.79h14.09V65.68a13.39,13.39,0,0,1-5.7,3.75A24.48,24.48,0,0,1,235.58,70.83Z"/><path class="cls-2" d="M235,32.23c4.28,0,7.65,1,10,3.07a12.81,12.81,0,0,1,4.06,7.88h-5.71a8.3,8.3,0,0,0-2.51-4.66,8.35,8.35,0,0,0-5.62-1.8,7.94,7.94,0,0,0-7,3.52C226.79,42.45,226,45.72,226,50v2.49c0,4.29.84,7.61,2.48,9.86A8.78,8.78,0,0,0,236,65.87c3.23,0,5.61-.75,7.06-2.23l.29-.29V55.21h-7.19V51.29h13.09V65.49A13,13,0,0,1,243.87,69a24,24,0,0,1-8.29,1.37,16,16,0,0,1-8.22-2.07,13.73,13.73,0,0,1-5.4-6,22,22,0,0,1-2-9.45V50.15a23.5,23.5,0,0,1,1.85-9.71,13.59,13.59,0,0,1,5.2-6.1,15,15,0,0,1,8-2.11m0-1a15.87,15.87,0,0,0-8.55,2.27A14.5,14.5,0,0,0,220.89,40,24.37,24.37,0,0,0,219,50.15v2.65a22.92,22.92,0,0,0,2.09,9.89,14.65,14.65,0,0,0,5.79,6.42,16.88,16.88,0,0,0,8.73,2.21,24.87,24.87,0,0,0,8.64-1.43,13.7,13.7,0,0,0,6-4V50.29H235.16v5.92h7.19v6.73q-1.9,1.93-6.35,1.93a7.79,7.79,0,0,1-6.72-3.14Q227,58.6,227,52.46V50q0-6.08,2.13-9.17a7,7,0,0,1,6.14-3.08,7.36,7.36,0,0,1,5,1.55,7.84,7.84,0,0,1,2.33,4.91h7.69q-.71-6.33-4.56-9.64T235,31.23Z"/><path class="cls-10" d="M271.87,70.83a15.32,15.32,0,0,1-8.24-2.26A15,15,0,0,1,258,62.12a22.83,22.83,0,0,1-2-9.75V50.45a23.41,23.41,0,0,1,2-9.94A15,15,0,0,1,263.56,34a16.15,16.15,0,0,1,16.51,0,15,15,0,0,1,5.58,6.52,23.35,23.35,0,0,1,2,9.91v1.74a23.54,23.54,0,0,1-2,9.9,14.84,14.84,0,0,1-5.54,6.49A15.21,15.21,0,0,1,271.87,70.83Zm-.05-33.45a7.5,7.5,0,0,0-6.55,3.37c-1.49,2.18-2.26,5.38-2.27,9.52v1.9c0,4.07.75,7.28,2.24,9.55a8,8,0,0,0,13.16.13c1.47-2.19,2.23-5.4,2.24-9.54V50.39c0-4.17-.76-7.41-2.25-9.61A7.5,7.5,0,0,0,271.82,37.37Z"/><path class="cls-2" d="M271.82,32.23a14.75,14.75,0,0,1,8,2.19,14.48,14.48,0,0,1,5.39,6.3,22.85,22.85,0,0,1,1.95,9.7v1.74a23.05,23.05,0,0,1-1.91,9.69,14.35,14.35,0,0,1-5.35,6.28,15.67,15.67,0,0,1-16,0,14.49,14.49,0,0,1-5.42-6.24,22.33,22.33,0,0,1-2-9.53V50.45a22.91,22.91,0,0,1,1.95-9.72,14.47,14.47,0,0,1,5.39-6.3,14.74,14.74,0,0,1,8-2.19m.05,33.51a7.9,7.9,0,0,0,6.94-3.62c1.53-2.27,2.31-5.58,2.33-9.82v-1.9c0-4.28-.78-7.6-2.33-9.89a8.55,8.55,0,0,0-14,0c-1.55,2.26-2.34,5.55-2.36,9.8v1.9c0,4.16.78,7.47,2.32,9.82a8,8,0,0,0,7.05,3.75m-.05-34.51a15.66,15.66,0,0,0-8.52,2.35,15.38,15.38,0,0,0-5.77,6.73,23.79,23.79,0,0,0-2,10.15v1.93a23.22,23.22,0,0,0,2.08,10A15.4,15.4,0,0,0,263.36,69a16.67,16.67,0,0,0,17.05,0,15.26,15.26,0,0,0,5.73-6.7,23.93,23.93,0,0,0,2-10.11V50.42a23.73,23.73,0,0,0-2-10.12,15.39,15.39,0,0,0-5.77-6.73,15.66,15.66,0,0,0-8.52-2.35Zm.05,33.51a7,7,0,0,1-6.22-3.3q-2.16-3.3-2.16-9.27v-1.9q0-6.08,2.19-9.23a7.55,7.55,0,0,1,12.3,0q2.16,3.19,2.16,9.33v1.9q0,6.09-2.16,9.26a6.92,6.92,0,0,1-6.11,3.18Z"/></svg>